<mxfile host="app.diagrams.net" modified="2022-06-22T09:18:40.290Z" agent="5.0 (Windows NT 10.0; Win64; x64) AppleWebKit/537.36 (KHTML, like Gecko) Chrome/102.0.5005.124 Safari/537.36 Edg/102.0.1245.41" etag="DGeXxGUl11if4WKcZol4" version="20.0.1" type="github">
  <diagram id="AYT4Q2zciEqor3gPtoe8" name="第 1 页">
    <mxGraphModel dx="595" dy="762" grid="1" gridSize="10" guides="1" tooltips="1" connect="1" arrows="1" fold="1" page="1" pageScale="1" pageWidth="827" pageHeight="1169" math="0" shadow="0">
      <root>
        <mxCell id="0" />
        <mxCell id="1" parent="0" />
        <mxCell id="3ToZKMEG0U51xlBFQ3Zl-118" value="" style="edgeStyle=orthogonalEdgeStyle;rounded=0;orthogonalLoop=1;jettySize=auto;html=1;fontFamily=Helvetica;" edge="1" parent="1" source="3ToZKMEG0U51xlBFQ3Zl-2" target="3ToZKMEG0U51xlBFQ3Zl-117">
          <mxGeometry relative="1" as="geometry" />
        </mxCell>
        <mxCell id="3ToZKMEG0U51xlBFQ3Zl-2" value="案件上报" style="rounded=1;whiteSpace=wrap;html=1;fontSize=12;glass=0;strokeWidth=1;shadow=0;" vertex="1" parent="1">
          <mxGeometry x="1269" y="120" width="120" height="40" as="geometry" />
        </mxCell>
        <mxCell id="3ToZKMEG0U51xlBFQ3Zl-8" value="" style="edgeStyle=orthogonalEdgeStyle;rounded=0;orthogonalLoop=1;jettySize=auto;html=1;fontFamily=Helvetica;fontSize=12;fontColor=default;" edge="1" parent="1" source="3ToZKMEG0U51xlBFQ3Zl-9" target="3ToZKMEG0U51xlBFQ3Zl-33">
          <mxGeometry relative="1" as="geometry" />
        </mxCell>
        <mxCell id="3ToZKMEG0U51xlBFQ3Zl-9" value="立案通知书" style="rounded=1;whiteSpace=wrap;html=1;fontSize=12;glass=0;strokeWidth=1;shadow=0;" vertex="1" parent="1">
          <mxGeometry x="1269" y="910" width="120" height="40" as="geometry" />
        </mxCell>
        <mxCell id="3ToZKMEG0U51xlBFQ3Zl-10" value="不予立案告知书" style="rounded=1;whiteSpace=wrap;html=1;fontSize=12;glass=0;strokeWidth=1;shadow=0;" vertex="1" parent="1">
          <mxGeometry x="1030" y="741" width="120" height="40" as="geometry" />
        </mxCell>
        <mxCell id="3ToZKMEG0U51xlBFQ3Zl-11" value="不予立案" style="text;html=1;align=center;verticalAlign=middle;resizable=0;points=[];autosize=1;strokeColor=none;fillColor=none;fontSize=14;" vertex="1" parent="1">
          <mxGeometry x="1169" y="721" width="70" height="20" as="geometry" />
        </mxCell>
        <mxCell id="3ToZKMEG0U51xlBFQ3Zl-18" value="不受理案件库" style="rounded=1;whiteSpace=wrap;html=1;fontSize=12;glass=0;strokeWidth=1;shadow=0;" vertex="1" parent="1">
          <mxGeometry x="1030" y="335" width="120" height="40" as="geometry" />
        </mxCell>
        <mxCell id="3ToZKMEG0U51xlBFQ3Zl-21" style="edgeStyle=orthogonalEdgeStyle;rounded=0;orthogonalLoop=1;jettySize=auto;html=1;exitX=0;exitY=0.5;exitDx=0;exitDy=0;fontFamily=Helvetica;fontSize=12;fontColor=default;" edge="1" parent="1" source="3ToZKMEG0U51xlBFQ3Zl-22" target="3ToZKMEG0U51xlBFQ3Zl-10">
          <mxGeometry relative="1" as="geometry" />
        </mxCell>
        <mxCell id="3ToZKMEG0U51xlBFQ3Zl-133" style="edgeStyle=orthogonalEdgeStyle;rounded=0;orthogonalLoop=1;jettySize=auto;html=1;exitX=0.5;exitY=1;exitDx=0;exitDy=0;entryX=0.5;entryY=0;entryDx=0;entryDy=0;fontFamily=Helvetica;" edge="1" parent="1" source="3ToZKMEG0U51xlBFQ3Zl-22" target="3ToZKMEG0U51xlBFQ3Zl-9">
          <mxGeometry relative="1" as="geometry" />
        </mxCell>
        <mxCell id="3ToZKMEG0U51xlBFQ3Zl-22" value="立案审批" style="swimlane;fontSize=14;" vertex="1" parent="1">
          <mxGeometry x="1249" y="671" width="160" height="180" as="geometry" />
        </mxCell>
        <mxCell id="3ToZKMEG0U51xlBFQ3Zl-24" value="执法机构负责人" style="rounded=1;whiteSpace=wrap;html=1;fontSize=12;glass=0;strokeWidth=1;shadow=0;" vertex="1" parent="3ToZKMEG0U51xlBFQ3Zl-22">
          <mxGeometry x="20" y="40" width="120" height="40" as="geometry" />
        </mxCell>
        <mxCell id="3ToZKMEG0U51xlBFQ3Zl-25" value="机关负责人" style="rounded=1;whiteSpace=wrap;html=1;fontSize=12;glass=0;strokeWidth=1;shadow=0;" vertex="1" parent="3ToZKMEG0U51xlBFQ3Zl-22">
          <mxGeometry x="20" y="95" width="120" height="40" as="geometry" />
        </mxCell>
        <mxCell id="3ToZKMEG0U51xlBFQ3Zl-131" value="立案审批表" style="text;html=1;align=center;verticalAlign=middle;resizable=0;points=[];autosize=1;strokeColor=none;fillColor=none;fontFamily=Helvetica;fontStyle=1" vertex="1" parent="3ToZKMEG0U51xlBFQ3Zl-22">
          <mxGeometry x="40" y="150" width="80" height="20" as="geometry" />
        </mxCell>
        <mxCell id="3ToZKMEG0U51xlBFQ3Zl-27" value="立案" style="text;html=1;align=center;verticalAlign=middle;resizable=0;points=[];autosize=1;strokeColor=none;fillColor=none;fontSize=12;fontFamily=Helvetica;fontColor=default;" vertex="1" parent="1">
          <mxGeometry x="1328" y="870" width="40" height="20" as="geometry" />
        </mxCell>
        <mxCell id="3ToZKMEG0U51xlBFQ3Zl-28" value="" style="edgeStyle=orthogonalEdgeStyle;rounded=0;orthogonalLoop=1;jettySize=auto;html=1;fontFamily=Helvetica;fontSize=12;fontColor=default;entryX=0.5;entryY=0;entryDx=0;entryDy=0;" edge="1" parent="1" source="3ToZKMEG0U51xlBFQ3Zl-33" target="3ToZKMEG0U51xlBFQ3Zl-42">
          <mxGeometry relative="1" as="geometry">
            <mxPoint x="1329" y="1190" as="targetPoint" />
          </mxGeometry>
        </mxCell>
        <mxCell id="3ToZKMEG0U51xlBFQ3Zl-30" value="" style="edgeStyle=orthogonalEdgeStyle;rounded=0;orthogonalLoop=1;jettySize=auto;html=1;fontFamily=Helvetica;fontSize=12;fontColor=default;" edge="1" parent="1" source="3ToZKMEG0U51xlBFQ3Zl-33" target="3ToZKMEG0U51xlBFQ3Zl-47">
          <mxGeometry relative="1" as="geometry" />
        </mxCell>
        <mxCell id="3ToZKMEG0U51xlBFQ3Zl-31" value="" style="edgeStyle=orthogonalEdgeStyle;rounded=0;orthogonalLoop=1;jettySize=auto;html=1;fontFamily=Helvetica;fontSize=12;fontColor=default;" edge="1" parent="1" source="3ToZKMEG0U51xlBFQ3Zl-33" target="3ToZKMEG0U51xlBFQ3Zl-47">
          <mxGeometry relative="1" as="geometry" />
        </mxCell>
        <mxCell id="3ToZKMEG0U51xlBFQ3Zl-32" style="rounded=0;orthogonalLoop=1;jettySize=auto;html=1;exitX=1;exitY=0;exitDx=0;exitDy=0;entryX=0;entryY=1;entryDx=0;entryDy=0;fontFamily=Helvetica;fontSize=12;fontColor=default;" edge="1" parent="1" source="3ToZKMEG0U51xlBFQ3Zl-33" target="3ToZKMEG0U51xlBFQ3Zl-49">
          <mxGeometry relative="1" as="geometry" />
        </mxCell>
        <mxCell id="3ToZKMEG0U51xlBFQ3Zl-99" style="edgeStyle=orthogonalEdgeStyle;rounded=0;orthogonalLoop=1;jettySize=auto;html=1;entryX=1;entryY=0.5;entryDx=0;entryDy=0;" edge="1" parent="1" source="3ToZKMEG0U51xlBFQ3Zl-33" target="3ToZKMEG0U51xlBFQ3Zl-36">
          <mxGeometry relative="1" as="geometry" />
        </mxCell>
        <mxCell id="3ToZKMEG0U51xlBFQ3Zl-33" value="案件库" style="rounded=1;whiteSpace=wrap;html=1;fontSize=12;glass=0;strokeWidth=1;shadow=0;" vertex="1" parent="1">
          <mxGeometry x="1269" y="990" width="120" height="40" as="geometry" />
        </mxCell>
        <mxCell id="3ToZKMEG0U51xlBFQ3Zl-34" value="撤案审批表" style="rounded=1;whiteSpace=wrap;html=1;fontSize=12;glass=0;strokeWidth=1;shadow=0;" vertex="1" parent="1">
          <mxGeometry x="1030" y="1130" width="120" height="40" as="geometry" />
        </mxCell>
        <mxCell id="3ToZKMEG0U51xlBFQ3Zl-35" style="edgeStyle=orthogonalEdgeStyle;rounded=0;orthogonalLoop=1;jettySize=auto;html=1;fontFamily=Helvetica;fontSize=12;fontColor=default;" edge="1" parent="1" source="3ToZKMEG0U51xlBFQ3Zl-36" target="3ToZKMEG0U51xlBFQ3Zl-34">
          <mxGeometry relative="1" as="geometry" />
        </mxCell>
        <mxCell id="3ToZKMEG0U51xlBFQ3Zl-36" value="审批" style="swimlane;fontSize=14;" vertex="1" parent="1">
          <mxGeometry x="1010" y="935" width="160" height="150" as="geometry" />
        </mxCell>
        <mxCell id="3ToZKMEG0U51xlBFQ3Zl-38" value="承办机构负责人" style="rounded=1;whiteSpace=wrap;html=1;fontSize=12;glass=0;strokeWidth=1;shadow=0;" vertex="1" parent="3ToZKMEG0U51xlBFQ3Zl-36">
          <mxGeometry x="20" y="40" width="120" height="40" as="geometry" />
        </mxCell>
        <mxCell id="3ToZKMEG0U51xlBFQ3Zl-39" value="机关负责人" style="rounded=1;whiteSpace=wrap;html=1;fontSize=12;glass=0;strokeWidth=1;shadow=0;" vertex="1" parent="3ToZKMEG0U51xlBFQ3Zl-36">
          <mxGeometry x="20" y="90" width="120" height="40" as="geometry" />
        </mxCell>
        <mxCell id="3ToZKMEG0U51xlBFQ3Zl-40" value="撤销立案申请" style="text;html=1;align=center;verticalAlign=middle;resizable=0;points=[];autosize=1;strokeColor=none;fillColor=none;fontSize=12;fontFamily=Helvetica;fontColor=default;" vertex="1" parent="1">
          <mxGeometry x="1179" y="990" width="90" height="20" as="geometry" />
        </mxCell>
        <mxCell id="3ToZKMEG0U51xlBFQ3Zl-134" style="edgeStyle=orthogonalEdgeStyle;rounded=0;orthogonalLoop=1;jettySize=auto;html=1;exitX=0.5;exitY=1;exitDx=0;exitDy=0;entryX=0.5;entryY=0;entryDx=0;entryDy=0;fontFamily=Helvetica;startArrow=none;" edge="1" parent="1" source="3ToZKMEG0U51xlBFQ3Zl-135" target="3ToZKMEG0U51xlBFQ3Zl-59">
          <mxGeometry relative="1" as="geometry" />
        </mxCell>
        <mxCell id="3ToZKMEG0U51xlBFQ3Zl-42" value="调查取证（可多次调查）" style="swimlane;fontSize=12;" vertex="1" parent="1">
          <mxGeometry x="1249" y="1080" width="160" height="150" as="geometry" />
        </mxCell>
        <mxCell id="3ToZKMEG0U51xlBFQ3Zl-43" value="收集整理证据材料" style="rounded=1;whiteSpace=wrap;html=1;fontSize=12;glass=0;strokeWidth=1;shadow=0;" vertex="1" parent="3ToZKMEG0U51xlBFQ3Zl-42">
          <mxGeometry x="20" y="35" width="120" height="40" as="geometry" />
        </mxCell>
        <mxCell id="3ToZKMEG0U51xlBFQ3Zl-44" value="上传调查资料" style="rounded=1;whiteSpace=wrap;html=1;fontSize=12;glass=0;strokeWidth=1;shadow=0;" vertex="1" parent="3ToZKMEG0U51xlBFQ3Zl-42">
          <mxGeometry x="20" y="90" width="120" height="40" as="geometry" />
        </mxCell>
        <mxCell id="3ToZKMEG0U51xlBFQ3Zl-46" value="" style="edgeStyle=orthogonalEdgeStyle;rounded=0;orthogonalLoop=1;jettySize=auto;html=1;fontFamily=Helvetica;fontSize=12;fontColor=default;" edge="1" parent="1" source="3ToZKMEG0U51xlBFQ3Zl-47" target="3ToZKMEG0U51xlBFQ3Zl-48">
          <mxGeometry relative="1" as="geometry" />
        </mxCell>
        <mxCell id="3ToZKMEG0U51xlBFQ3Zl-47" value="责令改正通知书" style="rounded=1;whiteSpace=wrap;html=1;fontSize=12;glass=0;strokeWidth=1;shadow=0;" vertex="1" parent="1">
          <mxGeometry x="1469" y="990" width="120" height="40" as="geometry" />
        </mxCell>
        <mxCell id="3ToZKMEG0U51xlBFQ3Zl-48" value="责令改正情况复查记录" style="rounded=1;whiteSpace=wrap;html=1;fontSize=12;glass=0;strokeWidth=1;shadow=0;" vertex="1" parent="1">
          <mxGeometry x="1469" y="1070" width="120" height="40" as="geometry" />
        </mxCell>
        <mxCell id="3ToZKMEG0U51xlBFQ3Zl-49" value="回避决定书" style="rounded=1;whiteSpace=wrap;html=1;fontSize=12;glass=0;strokeWidth=1;shadow=0;" vertex="1" parent="1">
          <mxGeometry x="1469" y="910" width="120" height="40" as="geometry" />
        </mxCell>
        <mxCell id="3ToZKMEG0U51xlBFQ3Zl-50" value="责令改正" style="text;html=1;align=center;verticalAlign=middle;resizable=0;points=[];autosize=1;strokeColor=none;fillColor=none;fontSize=12;fontFamily=Helvetica;fontColor=default;" vertex="1" parent="1">
          <mxGeometry x="1399" y="1010" width="60" height="20" as="geometry" />
        </mxCell>
        <mxCell id="3ToZKMEG0U51xlBFQ3Zl-57" value="送达回证" style="text;html=1;align=center;verticalAlign=middle;resizable=0;points=[];autosize=1;strokeColor=none;fillColor=none;fontSize=12;fontFamily=Helvetica;fontColor=default;" vertex="1" parent="1">
          <mxGeometry x="1329" y="1040" width="60" height="20" as="geometry" />
        </mxCell>
        <mxCell id="3ToZKMEG0U51xlBFQ3Zl-103" style="edgeStyle=orthogonalEdgeStyle;rounded=0;orthogonalLoop=1;jettySize=auto;html=1;exitX=1;exitY=0.5;exitDx=0;exitDy=0;entryX=0;entryY=0.5;entryDx=0;entryDy=0;" edge="1" parent="1" source="3ToZKMEG0U51xlBFQ3Zl-59" target="3ToZKMEG0U51xlBFQ3Zl-61">
          <mxGeometry relative="1" as="geometry">
            <Array as="points">
              <mxPoint x="1620" y="1310" />
              <mxPoint x="1620" y="140" />
            </Array>
          </mxGeometry>
        </mxCell>
        <mxCell id="3ToZKMEG0U51xlBFQ3Zl-59" value="案件调查终结报告" style="rounded=1;whiteSpace=wrap;html=1;fontSize=12;glass=0;strokeWidth=1;shadow=0;" vertex="1" parent="1">
          <mxGeometry x="1269" y="1290" width="120" height="40" as="geometry" />
        </mxCell>
        <mxCell id="3ToZKMEG0U51xlBFQ3Zl-60" value="" style="edgeStyle=orthogonalEdgeStyle;rounded=0;orthogonalLoop=1;jettySize=auto;html=1;fontFamily=Helvetica;fontSize=12;fontColor=default;entryX=0.5;entryY=0;entryDx=0;entryDy=0;" edge="1" parent="1" source="3ToZKMEG0U51xlBFQ3Zl-61" target="3ToZKMEG0U51xlBFQ3Zl-63">
          <mxGeometry relative="1" as="geometry">
            <mxPoint x="1854" y="400" as="targetPoint" />
          </mxGeometry>
        </mxCell>
        <mxCell id="3ToZKMEG0U51xlBFQ3Zl-61" value="拟定处罚意见" style="rounded=1;whiteSpace=wrap;html=1;fontSize=12;glass=0;strokeWidth=1;shadow=0;" vertex="1" parent="1">
          <mxGeometry x="1794" y="120" width="120" height="40" as="geometry" />
        </mxCell>
        <mxCell id="3ToZKMEG0U51xlBFQ3Zl-138" style="edgeStyle=orthogonalEdgeStyle;rounded=0;orthogonalLoop=1;jettySize=auto;html=1;exitX=0.5;exitY=1;exitDx=0;exitDy=0;fontFamily=Helvetica;" edge="1" parent="1" source="3ToZKMEG0U51xlBFQ3Zl-63" target="3ToZKMEG0U51xlBFQ3Zl-74">
          <mxGeometry relative="1" as="geometry" />
        </mxCell>
        <mxCell id="3ToZKMEG0U51xlBFQ3Zl-63" value="案件处理审批" style="swimlane;fontSize=14;" vertex="1" parent="1">
          <mxGeometry x="1774" y="210" width="160" height="240" as="geometry" />
        </mxCell>
        <mxCell id="3ToZKMEG0U51xlBFQ3Zl-65" value="执法机构负责人" style="rounded=1;whiteSpace=wrap;html=1;fontSize=12;glass=0;strokeWidth=1;shadow=0;" vertex="1" parent="3ToZKMEG0U51xlBFQ3Zl-63">
          <mxGeometry x="20" y="40" width="120" height="40" as="geometry" />
        </mxCell>
        <mxCell id="3ToZKMEG0U51xlBFQ3Zl-66" value="法制机构负责人" style="rounded=1;whiteSpace=wrap;html=1;fontSize=12;glass=0;strokeWidth=1;shadow=0;" vertex="1" parent="3ToZKMEG0U51xlBFQ3Zl-63">
          <mxGeometry x="20" y="100" width="120" height="40" as="geometry" />
        </mxCell>
        <mxCell id="3ToZKMEG0U51xlBFQ3Zl-68" value="机关负责人" style="rounded=1;whiteSpace=wrap;html=1;fontSize=12;glass=0;strokeWidth=1;shadow=0;" vertex="1" parent="3ToZKMEG0U51xlBFQ3Zl-63">
          <mxGeometry x="20" y="160" width="120" height="40" as="geometry" />
        </mxCell>
        <mxCell id="3ToZKMEG0U51xlBFQ3Zl-137" value="&lt;span style=&quot;&quot;&gt;案件处理审批表&lt;/span&gt;" style="text;html=1;align=center;verticalAlign=middle;resizable=0;points=[];autosize=1;strokeColor=none;fillColor=none;fontFamily=Helvetica;" vertex="1" parent="3ToZKMEG0U51xlBFQ3Zl-63">
          <mxGeometry x="30" y="210" width="100" height="20" as="geometry" />
        </mxCell>
        <mxCell id="3ToZKMEG0U51xlBFQ3Zl-67" value="案件处理审批" style="text;html=1;align=center;verticalAlign=middle;resizable=0;points=[];autosize=1;strokeColor=none;fillColor=none;fontSize=12;fontFamily=Helvetica;fontColor=default;" vertex="1" parent="1">
          <mxGeometry x="1854" y="170" width="90" height="20" as="geometry" />
        </mxCell>
        <mxCell id="3ToZKMEG0U51xlBFQ3Zl-71" value="" style="edgeStyle=orthogonalEdgeStyle;rounded=0;orthogonalLoop=1;jettySize=auto;html=1;fontFamily=Helvetica;fontSize=12;fontColor=default;" edge="1" parent="1" source="3ToZKMEG0U51xlBFQ3Zl-74" target="3ToZKMEG0U51xlBFQ3Zl-81">
          <mxGeometry relative="1" as="geometry" />
        </mxCell>
        <mxCell id="3ToZKMEG0U51xlBFQ3Zl-72" style="edgeStyle=orthogonalEdgeStyle;rounded=0;orthogonalLoop=1;jettySize=auto;html=1;entryX=0.5;entryY=0;entryDx=0;entryDy=0;fontFamily=Helvetica;fontSize=12;fontColor=default;" edge="1" parent="1" source="3ToZKMEG0U51xlBFQ3Zl-74" target="3ToZKMEG0U51xlBFQ3Zl-77">
          <mxGeometry relative="1" as="geometry" />
        </mxCell>
        <mxCell id="3ToZKMEG0U51xlBFQ3Zl-73" style="edgeStyle=orthogonalEdgeStyle;rounded=0;orthogonalLoop=1;jettySize=auto;html=1;exitX=1;exitY=0.5;exitDx=0;exitDy=0;entryX=0.5;entryY=0;entryDx=0;entryDy=0;fontFamily=Helvetica;fontSize=12;fontColor=default;" edge="1" parent="1" source="3ToZKMEG0U51xlBFQ3Zl-74" target="3ToZKMEG0U51xlBFQ3Zl-79">
          <mxGeometry relative="1" as="geometry" />
        </mxCell>
        <mxCell id="3ToZKMEG0U51xlBFQ3Zl-74" value="行政处罚事先告知书" style="rounded=1;whiteSpace=wrap;html=1;fontSize=12;glass=0;strokeWidth=1;shadow=0;" vertex="1" parent="1">
          <mxGeometry x="1794" y="490" width="120" height="40" as="geometry" />
        </mxCell>
        <mxCell id="3ToZKMEG0U51xlBFQ3Zl-75" style="edgeStyle=orthogonalEdgeStyle;rounded=0;orthogonalLoop=1;jettySize=auto;html=1;entryX=0.5;entryY=0;entryDx=0;entryDy=0;fontFamily=Helvetica;fontSize=12;fontColor=default;" edge="1" parent="1" source="3ToZKMEG0U51xlBFQ3Zl-77" target="3ToZKMEG0U51xlBFQ3Zl-81">
          <mxGeometry relative="1" as="geometry" />
        </mxCell>
        <mxCell id="3ToZKMEG0U51xlBFQ3Zl-76" style="edgeStyle=orthogonalEdgeStyle;rounded=0;orthogonalLoop=1;jettySize=auto;html=1;entryX=1;entryY=0.5;entryDx=0;entryDy=0;fontFamily=Helvetica;fontSize=12;fontColor=default;exitX=1;exitY=0.5;exitDx=0;exitDy=0;" edge="1" parent="1" source="3ToZKMEG0U51xlBFQ3Zl-81" target="3ToZKMEG0U51xlBFQ3Zl-61">
          <mxGeometry relative="1" as="geometry">
            <Array as="points">
              <mxPoint x="2114" y="620" />
              <mxPoint x="2114" y="140" />
            </Array>
          </mxGeometry>
        </mxCell>
        <mxCell id="3ToZKMEG0U51xlBFQ3Zl-77" value="&lt;span style=&quot;color: rgb(29, 29, 31); font-family: SourceSansPro, -apple-system, &amp;quot;PingFang SC&amp;quot;, &amp;quot;Apple Color Emoji&amp;quot;, BlinkMacSystemFont, Helvetica, Arial, &amp;quot;Segoe UI Emoji&amp;quot;, &amp;quot;Segoe UI Symbol&amp;quot;, &amp;quot;Microsoft YaHei&amp;quot;, 微软雅黑, 黑体, Heiti, sans-serif, SimSun, 宋体, serif; text-align: start; background-color: rgb(255, 255, 255);&quot;&gt;&lt;font style=&quot;font-size: 12px;&quot;&gt;陈述申辩、听证复核意见书&lt;/font&gt;&lt;/span&gt;" style="rounded=1;whiteSpace=wrap;html=1;fontSize=12;glass=0;strokeWidth=1;shadow=0;" vertex="1" parent="1">
          <mxGeometry x="1654" y="550" width="120" height="40" as="geometry" />
        </mxCell>
        <mxCell id="3ToZKMEG0U51xlBFQ3Zl-78" style="edgeStyle=orthogonalEdgeStyle;rounded=0;orthogonalLoop=1;jettySize=auto;html=1;fontFamily=Helvetica;fontSize=12;fontColor=default;" edge="1" parent="1" source="3ToZKMEG0U51xlBFQ3Zl-79">
          <mxGeometry relative="1" as="geometry">
            <mxPoint x="1854" y="610" as="targetPoint" />
          </mxGeometry>
        </mxCell>
        <mxCell id="3ToZKMEG0U51xlBFQ3Zl-79" value="&lt;span style=&quot;color: rgb(29, 29, 31); font-family: SourceSansPro, -apple-system, &amp;quot;PingFang SC&amp;quot;, &amp;quot;Apple Color Emoji&amp;quot;, BlinkMacSystemFont, Helvetica, Arial, &amp;quot;Segoe UI Emoji&amp;quot;, &amp;quot;Segoe UI Symbol&amp;quot;, &amp;quot;Microsoft YaHei&amp;quot;, 微软雅黑, 黑体, Heiti, sans-serif, SimSun, 宋体, serif; text-align: start; background-color: rgb(255, 255, 255);&quot;&gt;&lt;font style=&quot;font-size: 12px;&quot;&gt;重大执法决定法制审核意见书&lt;/font&gt;&lt;/span&gt;" style="rounded=1;whiteSpace=wrap;html=1;fontSize=12;glass=0;strokeWidth=1;shadow=0;" vertex="1" parent="1">
          <mxGeometry x="1934" y="550" width="120" height="40" as="geometry" />
        </mxCell>
        <mxCell id="3ToZKMEG0U51xlBFQ3Zl-80" value="" style="edgeStyle=orthogonalEdgeStyle;rounded=0;orthogonalLoop=1;jettySize=auto;html=1;fontFamily=Helvetica;fontSize=12;fontColor=default;" edge="1" parent="1" source="3ToZKMEG0U51xlBFQ3Zl-81" target="3ToZKMEG0U51xlBFQ3Zl-83">
          <mxGeometry relative="1" as="geometry" />
        </mxCell>
        <mxCell id="3ToZKMEG0U51xlBFQ3Zl-81" value="处罚决定审批&lt;br&gt;过程" style="rounded=1;whiteSpace=wrap;html=1;fontSize=12;glass=0;strokeWidth=1;shadow=0;" vertex="1" parent="1">
          <mxGeometry x="1794" y="600" width="120" height="40" as="geometry" />
        </mxCell>
        <mxCell id="3ToZKMEG0U51xlBFQ3Zl-82" value="" style="edgeStyle=orthogonalEdgeStyle;rounded=0;orthogonalLoop=1;jettySize=auto;html=1;fontFamily=Helvetica;fontSize=12;fontColor=default;" edge="1" parent="1" source="3ToZKMEG0U51xlBFQ3Zl-83" target="3ToZKMEG0U51xlBFQ3Zl-86">
          <mxGeometry relative="1" as="geometry" />
        </mxCell>
        <mxCell id="3ToZKMEG0U51xlBFQ3Zl-83" value="行政处罚决定书" style="rounded=1;whiteSpace=wrap;html=1;fontSize=12;glass=0;strokeWidth=1;shadow=0;" vertex="1" parent="1">
          <mxGeometry x="1794" y="690" width="120" height="40" as="geometry" />
        </mxCell>
        <mxCell id="3ToZKMEG0U51xlBFQ3Zl-84" value="&lt;span style=&quot;color: rgb(0, 0, 0); font-family: Helvetica; font-size: 12px; font-style: normal; font-variant-ligatures: normal; font-variant-caps: normal; font-weight: 400; letter-spacing: normal; orphans: 2; text-align: center; text-indent: 0px; text-transform: none; widows: 2; word-spacing: 0px; -webkit-text-stroke-width: 0px; background-color: rgb(248, 249, 250); text-decoration-thickness: initial; text-decoration-style: initial; text-decoration-color: initial; float: none; display: inline !important;&quot;&gt;依法制作处罚决定&lt;/span&gt;" style="text;whiteSpace=wrap;html=1;fontSize=12;fontFamily=Helvetica;fontColor=default;" vertex="1" parent="1">
          <mxGeometry x="1854" y="650" width="120" height="30" as="geometry" />
        </mxCell>
        <mxCell id="3ToZKMEG0U51xlBFQ3Zl-85" style="edgeStyle=orthogonalEdgeStyle;rounded=0;orthogonalLoop=1;jettySize=auto;html=1;entryX=0.5;entryY=0;entryDx=0;entryDy=0;fontFamily=Helvetica;fontSize=12;fontColor=default;" edge="1" parent="1" source="3ToZKMEG0U51xlBFQ3Zl-86" target="3ToZKMEG0U51xlBFQ3Zl-88">
          <mxGeometry relative="1" as="geometry" />
        </mxCell>
        <mxCell id="3ToZKMEG0U51xlBFQ3Zl-86" value="结案申请" style="rounded=1;whiteSpace=wrap;html=1;fontSize=12;glass=0;strokeWidth=1;shadow=0;" vertex="1" parent="1">
          <mxGeometry x="1794" y="780" width="120" height="40" as="geometry" />
        </mxCell>
        <mxCell id="3ToZKMEG0U51xlBFQ3Zl-87" value="送达回证" style="text;html=1;align=center;verticalAlign=middle;resizable=0;points=[];autosize=1;strokeColor=none;fillColor=none;fontSize=12;fontFamily=Helvetica;fontColor=default;" vertex="1" parent="1">
          <mxGeometry x="1854" y="740" width="60" height="20" as="geometry" />
        </mxCell>
        <mxCell id="3ToZKMEG0U51xlBFQ3Zl-141" style="edgeStyle=orthogonalEdgeStyle;rounded=0;orthogonalLoop=1;jettySize=auto;html=1;exitX=0.5;exitY=1;exitDx=0;exitDy=0;entryX=0.5;entryY=0;entryDx=0;entryDy=0;fontFamily=Helvetica;" edge="1" parent="1" source="3ToZKMEG0U51xlBFQ3Zl-88" target="3ToZKMEG0U51xlBFQ3Zl-97">
          <mxGeometry relative="1" as="geometry" />
        </mxCell>
        <mxCell id="3ToZKMEG0U51xlBFQ3Zl-88" value="审批" style="swimlane;fontSize=14;" vertex="1" parent="1">
          <mxGeometry x="1774" y="850" width="160" height="240" as="geometry" />
        </mxCell>
        <mxCell id="3ToZKMEG0U51xlBFQ3Zl-90" value="执法机构负责人" style="rounded=1;whiteSpace=wrap;html=1;fontSize=12;glass=0;strokeWidth=1;shadow=0;" vertex="1" parent="3ToZKMEG0U51xlBFQ3Zl-88">
          <mxGeometry x="20" y="40" width="120" height="40" as="geometry" />
        </mxCell>
        <mxCell id="3ToZKMEG0U51xlBFQ3Zl-91" value="法制机构负责人" style="rounded=1;whiteSpace=wrap;html=1;fontSize=12;glass=0;strokeWidth=1;shadow=0;" vertex="1" parent="3ToZKMEG0U51xlBFQ3Zl-88">
          <mxGeometry x="20" y="96" width="120" height="40" as="geometry" />
        </mxCell>
        <mxCell id="3ToZKMEG0U51xlBFQ3Zl-92" value="机关负责人" style="rounded=1;whiteSpace=wrap;html=1;fontSize=12;glass=0;strokeWidth=1;shadow=0;" vertex="1" parent="3ToZKMEG0U51xlBFQ3Zl-88">
          <mxGeometry x="20" y="150" width="120" height="40" as="geometry" />
        </mxCell>
        <mxCell id="3ToZKMEG0U51xlBFQ3Zl-139" value="&lt;span style=&quot;&quot;&gt;结案审批表&lt;/span&gt;" style="text;html=1;align=center;verticalAlign=middle;resizable=0;points=[];autosize=1;strokeColor=none;fillColor=none;fontFamily=Helvetica;" vertex="1" parent="3ToZKMEG0U51xlBFQ3Zl-88">
          <mxGeometry x="40" y="203" width="80" height="20" as="geometry" />
        </mxCell>
        <mxCell id="3ToZKMEG0U51xlBFQ3Zl-96" value="&lt;span style=&quot;&quot;&gt;当事人的事实、理由或证据成立，&lt;/span&gt;&lt;br style=&quot;&quot;&gt;&lt;span style=&quot;&quot;&gt;行政机关改变原拟作出的行政处罚决定&lt;/span&gt;" style="text;html=1;strokeColor=none;fillColor=none;align=center;verticalAlign=middle;whiteSpace=wrap;rounded=0;shadow=0;glass=0;fontFamily=Helvetica;fontSize=12;fontColor=default;" vertex="1" parent="1">
          <mxGeometry x="2054" y="270" width="50" height="234" as="geometry" />
        </mxCell>
        <mxCell id="3ToZKMEG0U51xlBFQ3Zl-97" value="&lt;p class=&quot;MsoNormal&quot;&gt;&lt;span&gt;案件归档&lt;/span&gt;&lt;/p&gt;" style="rounded=1;whiteSpace=wrap;html=1;fontSize=12;glass=0;strokeWidth=1;shadow=0;" vertex="1" parent="1">
          <mxGeometry x="1794" y="1130" width="120" height="40" as="geometry" />
        </mxCell>
        <mxCell id="3ToZKMEG0U51xlBFQ3Zl-107" style="edgeStyle=orthogonalEdgeStyle;rounded=0;orthogonalLoop=1;jettySize=auto;html=1;fontFamily=Helvetica;" edge="1" parent="1" source="3ToZKMEG0U51xlBFQ3Zl-105" target="3ToZKMEG0U51xlBFQ3Zl-18">
          <mxGeometry relative="1" as="geometry" />
        </mxCell>
        <mxCell id="3ToZKMEG0U51xlBFQ3Zl-123" style="edgeStyle=orthogonalEdgeStyle;rounded=0;orthogonalLoop=1;jettySize=auto;html=1;exitX=0.5;exitY=1;exitDx=0;exitDy=0;fontFamily=Helvetica;" edge="1" parent="1" source="3ToZKMEG0U51xlBFQ3Zl-105">
          <mxGeometry relative="1" as="geometry">
            <mxPoint x="1329" y="460" as="targetPoint" />
          </mxGeometry>
        </mxCell>
        <mxCell id="3ToZKMEG0U51xlBFQ3Zl-105" value="是否受案&lt;br&gt;执法机构" style="rhombus;whiteSpace=wrap;html=1;fontSize=14;fontStyle=1;startSize=23;" vertex="1" parent="1">
          <mxGeometry x="1279" y="305" width="100" height="100" as="geometry" />
        </mxCell>
        <mxCell id="3ToZKMEG0U51xlBFQ3Zl-108" value="否" style="text;html=1;align=center;verticalAlign=middle;resizable=0;points=[];autosize=1;strokeColor=none;fillColor=none;fontFamily=Helvetica;" vertex="1" parent="1">
          <mxGeometry x="1194" y="335" width="30" height="20" as="geometry" />
        </mxCell>
        <mxCell id="3ToZKMEG0U51xlBFQ3Zl-121" style="edgeStyle=orthogonalEdgeStyle;rounded=0;orthogonalLoop=1;jettySize=auto;html=1;exitX=0.5;exitY=1;exitDx=0;exitDy=0;entryX=0.5;entryY=0;entryDx=0;entryDy=0;fontFamily=Helvetica;" edge="1" parent="1" source="3ToZKMEG0U51xlBFQ3Zl-117" target="3ToZKMEG0U51xlBFQ3Zl-105">
          <mxGeometry relative="1" as="geometry" />
        </mxCell>
        <mxCell id="3ToZKMEG0U51xlBFQ3Zl-117" value="&lt;span style=&quot;&quot;&gt;案件受理登记表&lt;/span&gt;" style="rounded=1;whiteSpace=wrap;html=1;fontSize=12;glass=0;strokeWidth=1;shadow=0;" vertex="1" parent="1">
          <mxGeometry x="1269" y="210" width="120" height="40" as="geometry" />
        </mxCell>
        <mxCell id="3ToZKMEG0U51xlBFQ3Zl-124" value="是，批转承办人" style="text;html=1;align=center;verticalAlign=middle;resizable=0;points=[];autosize=1;strokeColor=none;fillColor=none;fontFamily=Helvetica;" vertex="1" parent="1">
          <mxGeometry x="1299" y="420" width="100" height="20" as="geometry" />
        </mxCell>
        <mxCell id="3ToZKMEG0U51xlBFQ3Zl-129" style="edgeStyle=orthogonalEdgeStyle;rounded=0;orthogonalLoop=1;jettySize=auto;html=1;entryX=0.5;entryY=0;entryDx=0;entryDy=0;fontFamily=Helvetica;" edge="1" parent="1" source="3ToZKMEG0U51xlBFQ3Zl-125" target="3ToZKMEG0U51xlBFQ3Zl-22">
          <mxGeometry relative="1" as="geometry" />
        </mxCell>
        <mxCell id="3ToZKMEG0U51xlBFQ3Zl-125" value="立案调查" style="swimlane;fontSize=14;" vertex="1" parent="1">
          <mxGeometry x="1249" y="460" width="160" height="149" as="geometry" />
        </mxCell>
        <mxCell id="3ToZKMEG0U51xlBFQ3Zl-126" value="收集整理证据材料" style="rounded=1;whiteSpace=wrap;html=1;fontSize=12;glass=0;strokeWidth=1;shadow=0;" vertex="1" parent="3ToZKMEG0U51xlBFQ3Zl-125">
          <mxGeometry x="20" y="35" width="120" height="40" as="geometry" />
        </mxCell>
        <mxCell id="3ToZKMEG0U51xlBFQ3Zl-127" value="上传调查资料" style="rounded=1;whiteSpace=wrap;html=1;fontSize=12;glass=0;strokeWidth=1;shadow=0;" vertex="1" parent="3ToZKMEG0U51xlBFQ3Zl-125">
          <mxGeometry x="20" y="90" width="120" height="40" as="geometry" />
        </mxCell>
        <mxCell id="3ToZKMEG0U51xlBFQ3Zl-130" value="承办人立案申请" style="text;html=1;align=center;verticalAlign=middle;resizable=0;points=[];autosize=1;strokeColor=none;fillColor=none;fontFamily=Helvetica;" vertex="1" parent="1">
          <mxGeometry x="1279" y="631" width="100" height="20" as="geometry" />
        </mxCell>
        <mxCell id="3ToZKMEG0U51xlBFQ3Zl-135" value="调查结束申请" style="text;html=1;align=center;verticalAlign=middle;resizable=0;points=[];autosize=1;strokeColor=none;fillColor=none;fontFamily=Helvetica;" vertex="1" parent="1">
          <mxGeometry x="1284" y="1250" width="90" height="20" as="geometry" />
        </mxCell>
        <mxCell id="3ToZKMEG0U51xlBFQ3Zl-136" value="" style="edgeStyle=orthogonalEdgeStyle;rounded=0;orthogonalLoop=1;jettySize=auto;html=1;exitX=0.5;exitY=1;exitDx=0;exitDy=0;entryX=0.5;entryY=0;entryDx=0;entryDy=0;fontFamily=Helvetica;endArrow=none;" edge="1" parent="1" source="3ToZKMEG0U51xlBFQ3Zl-42" target="3ToZKMEG0U51xlBFQ3Zl-135">
          <mxGeometry relative="1" as="geometry">
            <mxPoint x="1329" y="1230" as="sourcePoint" />
            <mxPoint x="1329" y="1290" as="targetPoint" />
          </mxGeometry>
        </mxCell>
      </root>
    </mxGraphModel>
  </diagram>
</mxfile>
